<?xml version="1.0" encoding="utf-8"?>
<!-- Generator: Adobe Illustrator 24.0.1, SVG Export Plug-In . SVG Version: 6.00 Build 0)  -->
<svg version="1.1" id="Layer_1" xmlns="http://www.w3.org/2000/svg" xmlns:xlink="http://www.w3.org/1999/xlink" x="0px" y="0px"
	 viewBox="0 0 364.91 382.56" style="enable-background:new 0 0 364.91 382.56;" xml:space="preserve">
<style type="text/css">
	.st0{fill:none;stroke:#000000;stroke-width:6;stroke-linecap:round;stroke-linejoin:round;stroke-miterlimit:2.6131;}
</style>
<path class="st0" d="M214.96,44.85h67.49v78.01 M74.81,44.85H6.11v327.21h276.35v-34.5 M116.49,24.31h10.75
	c0-9.42,7.64-17.04,17.04-17.04c9.41,0,17.04,7.62,17.04,17.04h10.76c11.34,0,20.54,9.2,20.54,20.54c0,11.34-9.2,20.54-20.54,20.54
	h-55.59c-11.35,0-20.54-9.2-20.54-20.54C95.94,33.51,105.14,24.31,116.49,24.31L116.49,24.31z"/>
<path class="st0" d="M218.91,153.71c27.88-21.68,68.08-16.66,89.75,11.23c21.69,27.89,16.66,68.07-11.22,89.76
	c-27.88,21.68-68.08,16.66-89.76-11.23C185.99,215.6,191.02,175.4,218.91,153.71L218.91,153.71z"/>
<path class="st0" d="M47.61,116.62h109.96 M47.61,166.57h109.96 M47.61,216.5h109.96"/>
<polyline class="st0" points="185.73,248.49 153.42,315.92 194.16,301.58 208.51,342.31 235.47,286.01 "/>
<polyline class="st0" points="330.62,248.5 362.91,315.92 322.18,301.58 307.83,342.31 280.88,286.03 "/>
</svg>
