<?xml version="1.0" encoding="utf-8"?>
<!-- Generator: Adobe Illustrator 24.0.1, SVG Export Plug-In . SVG Version: 6.00 Build 0)  -->
<svg version="1.1" id="Layer_1" xmlns="http://www.w3.org/2000/svg" xmlns:xlink="http://www.w3.org/1999/xlink" x="0px" y="0px"
	 viewBox="0 0 399.57 400.46" style="enable-background:new 0 0 399.57 400.46;" xml:space="preserve">
<g>
	<path d="M322.87,400.46c-0.78,0-1.55-0.31-2.12-0.88l-59.54-59.54c-0.6-0.6-0.92-1.43-0.88-2.28l2.76-51.45l-76.51-76.51
		c-6.4-6.4-6.4-16.82,0-23.22c6.4-6.39,16.82-6.39,23.22,0c0,0,0,0,0,0l76.51,76.51l51.44-2.74c0.85-0.04,1.68,0.27,2.28,0.88
		l59.54,59.54c0.84,0.84,1.1,2.09,0.68,3.19c-0.42,1.11-1.46,1.86-2.64,1.92l-68.11,3.64l-3.64,68.11
		c-0.06,1.18-0.82,2.22-1.92,2.64C323.59,400.4,323.23,400.46,322.87,400.46z M266.4,336.75l53.83,53.83l3.42-64.08
		c0.08-1.53,1.3-2.75,2.84-2.84l64.08-3.42l-53.83-53.83l-51.44,2.74c-0.84,0.05-1.68-0.27-2.28-0.88l-77.45-77.45
		c-4.06-4.05-10.68-4.05-14.74,0c-4.06,4.06-4.06,10.67,0,14.73l77.45,77.45c0.6,0.6,0.92,1.43,0.88,2.28L266.4,336.75z"/>
</g>
<g>
	<path d="M189.01,243.81h-0.3c-30.39,0-55.11-24.72-55.11-55.1c0-30.39,24.72-55.11,55.11-55.11c30.39,0,55.11,24.72,55.11,55.11
		v0.3c0,1.66-1.34,3-3,3s-3-1.34-3-3v-0.3c0-27.08-22.03-49.11-49.11-49.11c-27.08,0-49.11,22.03-49.11,49.11
		c0,27.08,22.03,49.1,49.11,49.1h0.3c1.66,0,3,1.34,3,3S190.67,243.81,189.01,243.81z"/>
</g>
<g>
	<path d="M188.71,311.89c-67.91,0-123.17-55.26-123.17-123.18c0-67.92,55.25-123.17,123.17-123.17
		c67.92,0,123.18,55.25,123.18,123.17c0,19.29-4.34,37.78-12.91,54.95c-0.74,1.48-2.54,2.08-4.02,1.34
		c-1.48-0.74-2.08-2.54-1.34-4.02c8.15-16.33,12.28-33.92,12.28-52.27c0-64.61-52.57-117.17-117.18-117.17
		c-64.61,0-117.17,52.56-117.17,117.17c0,64.61,52.56,117.18,117.17,117.18c18.35,0,35.94-4.13,52.27-12.28
		c1.48-0.74,3.28-0.14,4.02,1.34c0.74,1.48,0.14,3.28-1.34,4.02C226.48,307.54,208,311.89,188.71,311.89z"/>
</g>
<g>
	<path d="M188.71,377.43C84.65,377.43,0,292.77,0,188.71C0,84.65,84.65,0,188.71,0c104.05,0,188.71,84.65,188.71,188.71
		c0,23.18-4.15,45.8-12.32,67.23c-0.59,1.55-2.32,2.33-3.87,1.73c-1.55-0.59-2.32-2.32-1.73-3.87
		c7.92-20.74,11.93-42.64,11.93-65.09C371.41,87.96,289.45,6,188.71,6C87.96,6,6,87.96,6,188.71
		c0,100.75,81.96,182.72,182.71,182.72c22.41,0,44.31-4.02,65.09-11.94c1.55-0.59,3.28,0.19,3.87,1.73
		c0.59,1.55-0.19,3.28-1.73,3.87C234.47,373.28,211.85,377.43,188.71,377.43z"/>
</g>
</svg>
